G75*
%MOIN*%
%OFA0B0*%
%FSLAX25Y25*%
%IPPOS*%
%LPD*%
%AMOC8*
5,1,8,0,0,1.08239X$1,22.5*
%
%ADD10C,0.01600*%
%ADD11C,0.00600*%
D10*
X0159381Y0035772D02*
X0159381Y0047354D01*
X0159381Y0053260D02*
X0159381Y0064843D01*
X0159381Y0070748D02*
X0159381Y0082331D01*
X0159381Y0088236D02*
X0159381Y0099819D01*
X0159381Y0105724D02*
X0159381Y0117307D01*
X0159381Y0123213D02*
X0159381Y0134795D01*
X0159381Y0140701D02*
X0159381Y0152283D01*
X0159381Y0158189D02*
X0159381Y0169772D01*
X0159381Y0175677D02*
X0159381Y0187260D01*
X0159381Y0193165D02*
X0159381Y0204748D01*
X0159381Y0210653D02*
X0159381Y0222236D01*
X0159381Y0228141D02*
X0159381Y0239724D01*
X0159381Y0245630D02*
X0159381Y0257212D01*
X0159381Y0263118D02*
X0159381Y0274700D01*
X0159381Y0280606D02*
X0159381Y0292189D01*
X0159381Y0298094D02*
X0159381Y0309677D01*
D11*
X0164845Y0303295D02*
X0163778Y0302227D01*
X0163778Y0299025D01*
X0165913Y0299025D02*
X0165913Y0302227D01*
X0164845Y0303295D01*
X0165913Y0302227D02*
X0166980Y0303295D01*
X0168048Y0303295D01*
X0168048Y0299025D01*
X0170223Y0300092D02*
X0170223Y0302227D01*
X0171291Y0303295D01*
X0173426Y0303295D01*
X0174494Y0302227D01*
X0174494Y0300092D01*
X0173426Y0299025D01*
X0171291Y0299025D01*
X0170223Y0300092D01*
X0176669Y0299025D02*
X0179871Y0299025D01*
X0180939Y0300092D01*
X0180939Y0302227D01*
X0179871Y0303295D01*
X0176669Y0303295D01*
X0183094Y0300092D02*
X0183094Y0299025D01*
X0184162Y0299025D01*
X0184162Y0300092D01*
X0183094Y0300092D01*
X0186337Y0301160D02*
X0190607Y0301160D01*
X0190607Y0302227D02*
X0189540Y0303295D01*
X0187405Y0303295D01*
X0186337Y0302227D01*
X0186337Y0301160D01*
X0187405Y0299025D02*
X0189540Y0299025D01*
X0190607Y0300092D01*
X0190607Y0302227D01*
X0192782Y0303295D02*
X0195985Y0303295D01*
X0197053Y0302227D01*
X0197053Y0300092D01*
X0195985Y0299025D01*
X0192782Y0299025D01*
X0199228Y0299025D02*
X0199228Y0302227D01*
X0200296Y0303295D01*
X0202431Y0303295D01*
X0202431Y0301160D02*
X0199228Y0301160D01*
X0199228Y0299025D02*
X0202431Y0299025D01*
X0203498Y0300092D01*
X0202431Y0301160D01*
X0205673Y0302227D02*
X0206741Y0303295D01*
X0209944Y0303295D01*
X0209944Y0296890D01*
X0209944Y0299025D02*
X0206741Y0299025D01*
X0205673Y0300092D01*
X0205673Y0302227D01*
X0212119Y0303295D02*
X0215322Y0303295D01*
X0216389Y0302227D01*
X0215322Y0301160D01*
X0213187Y0301160D01*
X0212119Y0300092D01*
X0213187Y0299025D01*
X0216389Y0299025D01*
X0219625Y0303295D02*
X0221760Y0301160D01*
X0221760Y0299025D02*
X0221760Y0303295D01*
X0219625Y0303295D02*
X0218558Y0303295D01*
X0223936Y0302227D02*
X0223936Y0301160D01*
X0228206Y0301160D01*
X0228206Y0302227D02*
X0227138Y0303295D01*
X0225003Y0303295D01*
X0223936Y0302227D01*
X0225003Y0299025D02*
X0227138Y0299025D01*
X0228206Y0300092D01*
X0228206Y0302227D01*
X0230375Y0303295D02*
X0233577Y0301160D01*
X0230375Y0299025D01*
X0233577Y0299025D02*
X0233577Y0305430D01*
X0235752Y0302227D02*
X0235752Y0299025D01*
X0238955Y0299025D01*
X0240023Y0300092D01*
X0238955Y0301160D01*
X0235752Y0301160D01*
X0235752Y0302227D02*
X0236820Y0303295D01*
X0238955Y0303295D01*
X0242198Y0305430D02*
X0242198Y0299025D01*
X0246468Y0299025D02*
X0246468Y0305430D01*
X0244333Y0303295D01*
X0242198Y0305430D01*
X0249698Y0305430D02*
X0249698Y0306498D01*
X0249698Y0303295D02*
X0249698Y0299025D01*
X0250765Y0299025D02*
X0248630Y0299025D01*
X0252940Y0299025D02*
X0256143Y0299025D01*
X0257211Y0300092D01*
X0256143Y0301160D01*
X0252940Y0301160D01*
X0252940Y0302227D02*
X0252940Y0299025D01*
X0252940Y0302227D02*
X0254008Y0303295D01*
X0256143Y0303295D01*
X0259386Y0302227D02*
X0259386Y0299025D01*
X0259386Y0302227D02*
X0260453Y0303295D01*
X0263656Y0303295D01*
X0263656Y0299025D01*
X0265831Y0299025D02*
X0265831Y0302227D01*
X0266899Y0303295D01*
X0270102Y0303295D01*
X0270102Y0299025D01*
X0272277Y0301160D02*
X0276547Y0301160D01*
X0276547Y0302227D02*
X0275480Y0303295D01*
X0273344Y0303295D01*
X0272277Y0302227D01*
X0272277Y0301160D01*
X0273344Y0299025D02*
X0275480Y0299025D01*
X0276547Y0300092D01*
X0276547Y0302227D01*
X0278722Y0302227D02*
X0278722Y0299025D01*
X0278722Y0302227D02*
X0279790Y0303295D01*
X0281925Y0303295D01*
X0282993Y0302227D01*
X0285168Y0300092D02*
X0286235Y0299025D01*
X0288371Y0299025D01*
X0289438Y0300092D01*
X0289438Y0304363D01*
X0288371Y0305430D01*
X0286235Y0305430D01*
X0285168Y0304363D01*
X0282993Y0305430D02*
X0282993Y0299025D01*
X0307972Y0297888D02*
X0307972Y0301091D01*
X0309039Y0302158D01*
X0312242Y0302158D01*
X0312242Y0297888D01*
X0314417Y0297888D02*
X0317620Y0297888D01*
X0318688Y0298955D01*
X0317620Y0300023D01*
X0314417Y0300023D01*
X0314417Y0301091D02*
X0314417Y0297888D01*
X0314417Y0301091D02*
X0315485Y0302158D01*
X0317620Y0302158D01*
X0320856Y0302158D02*
X0321924Y0302158D01*
X0324059Y0300023D01*
X0324059Y0297888D02*
X0324059Y0302158D01*
X0327288Y0302158D02*
X0327288Y0297888D01*
X0326221Y0297888D02*
X0328356Y0297888D01*
X0330531Y0297888D02*
X0330531Y0301091D01*
X0331599Y0302158D01*
X0333734Y0302158D01*
X0334801Y0301091D01*
X0336963Y0302158D02*
X0339098Y0302158D01*
X0338031Y0303226D02*
X0338031Y0298955D01*
X0336963Y0297888D01*
X0334801Y0297888D02*
X0334801Y0304293D01*
X0328356Y0302158D02*
X0327288Y0302158D01*
X0327288Y0304293D02*
X0327288Y0305361D01*
X0341273Y0301091D02*
X0341273Y0297888D01*
X0341273Y0301091D02*
X0342341Y0302158D01*
X0345544Y0302158D01*
X0345544Y0297888D01*
X0347719Y0300023D02*
X0351989Y0300023D01*
X0351989Y0298955D02*
X0351989Y0301091D01*
X0350922Y0302158D01*
X0348787Y0302158D01*
X0347719Y0301091D01*
X0347719Y0300023D01*
X0348787Y0297888D02*
X0350922Y0297888D01*
X0351989Y0298955D01*
X0354164Y0297888D02*
X0357367Y0297888D01*
X0358435Y0298955D01*
X0358435Y0302158D01*
X0360610Y0301091D02*
X0360610Y0297888D01*
X0363813Y0297888D01*
X0364880Y0298955D01*
X0363813Y0300023D01*
X0360610Y0300023D01*
X0360610Y0301091D02*
X0361678Y0302158D01*
X0363813Y0302158D01*
X0367042Y0302158D02*
X0367042Y0296820D01*
X0368110Y0295753D01*
X0369177Y0295753D01*
X0371339Y0297888D02*
X0373474Y0297888D01*
X0372407Y0297888D02*
X0372407Y0302158D01*
X0373474Y0302158D01*
X0372407Y0304293D02*
X0372407Y0305361D01*
X0375649Y0304293D02*
X0375649Y0300023D01*
X0377785Y0297888D01*
X0379920Y0300023D01*
X0379920Y0304293D01*
X0382095Y0304293D02*
X0386365Y0297888D01*
X0388540Y0297888D02*
X0388540Y0301091D01*
X0389608Y0302158D01*
X0390676Y0301091D01*
X0390676Y0297888D01*
X0392811Y0297888D02*
X0392811Y0302158D01*
X0391743Y0302158D01*
X0390676Y0301091D01*
X0394986Y0301091D02*
X0394986Y0298955D01*
X0396054Y0297888D01*
X0398189Y0297888D01*
X0399256Y0298955D01*
X0399256Y0301091D01*
X0398189Y0302158D01*
X0396054Y0302158D01*
X0394986Y0301091D01*
X0401431Y0302158D02*
X0404634Y0302158D01*
X0405702Y0301091D01*
X0405702Y0298955D01*
X0404634Y0297888D01*
X0401431Y0297888D01*
X0407857Y0297888D02*
X0408925Y0297888D01*
X0408925Y0298955D01*
X0407857Y0298955D01*
X0407857Y0297888D01*
X0411100Y0298955D02*
X0411100Y0301091D01*
X0412167Y0302158D01*
X0415370Y0302158D01*
X0415370Y0304293D02*
X0415370Y0297888D01*
X0412167Y0297888D01*
X0411100Y0298955D01*
X0417545Y0297888D02*
X0417545Y0302158D01*
X0417545Y0297888D02*
X0420748Y0297888D01*
X0421816Y0298955D01*
X0421816Y0302158D01*
X0423991Y0301091D02*
X0423991Y0297888D01*
X0423991Y0301091D02*
X0425058Y0302158D01*
X0427193Y0302158D01*
X0428261Y0301091D01*
X0430423Y0302158D02*
X0432558Y0302158D01*
X0431490Y0303226D02*
X0431490Y0298955D01*
X0430423Y0297888D01*
X0428261Y0297888D02*
X0428261Y0304293D01*
X0435787Y0304293D02*
X0435787Y0305361D01*
X0435787Y0302158D02*
X0435787Y0297888D01*
X0434720Y0297888D02*
X0436855Y0297888D01*
X0439030Y0297888D02*
X0442233Y0297888D01*
X0443300Y0298955D01*
X0443300Y0301091D01*
X0442233Y0302158D01*
X0439030Y0302158D01*
X0439030Y0296820D01*
X0440098Y0295753D01*
X0441165Y0295753D01*
X0436855Y0302158D02*
X0435787Y0302158D01*
X0451901Y0302158D02*
X0451901Y0301091D01*
X0452969Y0301091D01*
X0452969Y0302158D01*
X0451901Y0302158D01*
X0451901Y0298955D02*
X0451901Y0297888D01*
X0452969Y0297888D01*
X0452969Y0298955D01*
X0451901Y0298955D01*
X0455144Y0298955D02*
X0456212Y0300023D01*
X0458347Y0300023D01*
X0459414Y0301091D01*
X0458347Y0302158D01*
X0455144Y0302158D01*
X0455144Y0298955D02*
X0456212Y0297888D01*
X0459414Y0297888D01*
X0461589Y0297888D02*
X0464792Y0297888D01*
X0465860Y0298955D01*
X0465860Y0301091D01*
X0464792Y0302158D01*
X0461589Y0302158D01*
X0468035Y0301091D02*
X0468035Y0298955D01*
X0469102Y0297888D01*
X0471238Y0297888D01*
X0472305Y0298955D01*
X0472305Y0301091D01*
X0471238Y0302158D01*
X0469102Y0302158D01*
X0468035Y0301091D01*
X0474480Y0298955D02*
X0474480Y0303226D01*
X0475548Y0304293D01*
X0478751Y0304293D01*
X0478751Y0297888D01*
X0475548Y0297888D01*
X0474480Y0298955D01*
X0367042Y0304293D02*
X0367042Y0305361D01*
X0356300Y0295753D02*
X0355232Y0295753D01*
X0354164Y0296820D01*
X0354164Y0302158D01*
X0250765Y0303295D02*
X0249698Y0303295D01*
X0255949Y0222032D02*
X0260220Y0222032D01*
X0260220Y0215626D01*
X0255949Y0215626D01*
X0258085Y0218829D02*
X0260220Y0218829D01*
X0262395Y0218829D02*
X0264530Y0218829D01*
X0262395Y0218829D02*
X0262395Y0216694D01*
X0263462Y0215626D01*
X0265598Y0215626D01*
X0266665Y0216694D01*
X0266665Y0220964D01*
X0265598Y0222032D01*
X0263462Y0222032D01*
X0262395Y0220964D01*
X0268840Y0219897D02*
X0268840Y0215626D01*
X0268840Y0218829D02*
X0273111Y0218829D01*
X0273111Y0219897D02*
X0273111Y0215626D01*
X0277421Y0215626D02*
X0277421Y0222032D01*
X0279556Y0222032D02*
X0275286Y0222032D01*
X0273111Y0219897D02*
X0270976Y0222032D01*
X0268840Y0219897D01*
X0281731Y0215626D02*
X0286002Y0215626D01*
X0286002Y0222032D01*
X0288177Y0220964D02*
X0288177Y0216694D01*
X0289244Y0215626D01*
X0291380Y0215626D01*
X0292447Y0216694D01*
X0292447Y0220964D01*
X0291380Y0222032D01*
X0289244Y0222032D01*
X0288177Y0220964D01*
X0294622Y0222032D02*
X0294622Y0217762D01*
X0296758Y0215626D01*
X0298893Y0217762D01*
X0298893Y0222032D01*
X0307513Y0222032D02*
X0307513Y0215626D01*
X0307513Y0218829D02*
X0311784Y0218829D01*
X0313959Y0218829D02*
X0316094Y0218829D01*
X0313959Y0218829D02*
X0313959Y0216694D01*
X0315026Y0215626D01*
X0317162Y0215626D01*
X0318229Y0216694D01*
X0318229Y0220964D01*
X0317162Y0222032D01*
X0315026Y0222032D01*
X0313959Y0220964D01*
X0311784Y0222032D02*
X0311784Y0215626D01*
X0320391Y0215626D02*
X0322526Y0215626D01*
X0321459Y0215626D02*
X0321459Y0222032D01*
X0322526Y0222032D02*
X0320391Y0222032D01*
X0324701Y0222032D02*
X0324701Y0215626D01*
X0324701Y0218829D02*
X0328972Y0218829D01*
X0328972Y0215626D02*
X0328972Y0222032D01*
X0337572Y0219897D02*
X0337572Y0218829D01*
X0338640Y0218829D01*
X0338640Y0219897D01*
X0337572Y0219897D01*
X0337572Y0216694D02*
X0337572Y0215626D01*
X0338640Y0215626D01*
X0338640Y0216694D01*
X0337572Y0216694D01*
X0340815Y0215626D02*
X0340815Y0222032D01*
X0345085Y0222032D02*
X0340815Y0215626D01*
X0345085Y0215626D02*
X0345085Y0222032D01*
X0347261Y0220964D02*
X0348328Y0222032D01*
X0350463Y0222032D01*
X0351531Y0220964D01*
X0351531Y0216694D01*
X0350463Y0215626D01*
X0348328Y0215626D01*
X0347261Y0216694D01*
X0347261Y0220964D01*
X0353693Y0222032D02*
X0355828Y0222032D01*
X0354760Y0222032D02*
X0354760Y0215626D01*
X0353693Y0215626D02*
X0355828Y0215626D01*
X0360138Y0215626D02*
X0360138Y0222032D01*
X0362273Y0222032D02*
X0358003Y0222032D01*
X0364449Y0222032D02*
X0364449Y0216694D01*
X0365516Y0215626D01*
X0367651Y0215626D01*
X0368719Y0216694D01*
X0368719Y0222032D01*
X0370894Y0219897D02*
X0370894Y0215626D01*
X0370894Y0218829D02*
X0375164Y0218829D01*
X0375164Y0219897D02*
X0375164Y0215626D01*
X0377340Y0216694D02*
X0378407Y0215626D01*
X0380542Y0215626D01*
X0381610Y0216694D01*
X0381610Y0220964D01*
X0380542Y0222032D01*
X0378407Y0222032D01*
X0377340Y0220964D01*
X0375164Y0219897D02*
X0373029Y0222032D01*
X0370894Y0219897D01*
X0390231Y0218829D02*
X0394501Y0218829D01*
X0396676Y0218829D02*
X0400946Y0218829D01*
X0403122Y0218829D02*
X0407392Y0218829D01*
X0409567Y0218829D02*
X0413837Y0218829D01*
X0416013Y0218829D02*
X0420283Y0218829D01*
X0428904Y0215626D02*
X0433174Y0218829D01*
X0428904Y0222032D01*
X0406253Y0122847D02*
X0406253Y0121780D01*
X0406253Y0119645D02*
X0406253Y0115374D01*
X0407320Y0115374D02*
X0405185Y0115374D01*
X0401956Y0116442D02*
X0400888Y0115374D01*
X0401956Y0116442D02*
X0401956Y0120712D01*
X0403023Y0119645D02*
X0400888Y0119645D01*
X0398726Y0118577D02*
X0398726Y0116442D01*
X0397659Y0115374D01*
X0394456Y0115374D01*
X0392281Y0115374D02*
X0392281Y0121780D01*
X0391213Y0119645D02*
X0389078Y0119645D01*
X0388010Y0118577D01*
X0388010Y0115374D01*
X0385835Y0115374D02*
X0383700Y0115374D01*
X0384768Y0115374D02*
X0384768Y0119645D01*
X0385835Y0119645D01*
X0384768Y0121780D02*
X0384768Y0122847D01*
X0381538Y0119645D02*
X0378335Y0119645D01*
X0377268Y0118577D01*
X0377268Y0115374D01*
X0375093Y0116442D02*
X0374025Y0115374D01*
X0370822Y0115374D01*
X0370822Y0114307D02*
X0370822Y0119645D01*
X0374025Y0119645D01*
X0375093Y0118577D01*
X0375093Y0116442D01*
X0372957Y0113239D02*
X0371890Y0113239D01*
X0370822Y0114307D01*
X0362202Y0115374D02*
X0362202Y0121780D01*
X0362202Y0118577D02*
X0357931Y0118577D01*
X0355756Y0118577D02*
X0355756Y0116442D01*
X0354689Y0115374D01*
X0352553Y0115374D01*
X0351486Y0116442D01*
X0351486Y0118577D01*
X0352553Y0119645D01*
X0354689Y0119645D01*
X0355756Y0118577D01*
X0357931Y0121780D02*
X0357931Y0115374D01*
X0349311Y0115374D02*
X0349311Y0119645D01*
X0348243Y0119645D01*
X0347176Y0118577D01*
X0346108Y0119645D01*
X0345040Y0118577D01*
X0345040Y0115374D01*
X0347176Y0115374D02*
X0347176Y0118577D01*
X0342865Y0118577D02*
X0341798Y0119645D01*
X0339662Y0119645D01*
X0338595Y0118577D01*
X0338595Y0117509D01*
X0342865Y0117509D01*
X0342865Y0116442D02*
X0342865Y0118577D01*
X0342865Y0116442D02*
X0341798Y0115374D01*
X0339662Y0115374D01*
X0329974Y0115374D02*
X0329974Y0119645D01*
X0327839Y0121780D01*
X0325704Y0119645D01*
X0325704Y0115374D01*
X0323529Y0116442D02*
X0322461Y0115374D01*
X0319258Y0115374D01*
X0319258Y0119645D01*
X0317083Y0119645D02*
X0314948Y0119645D01*
X0316016Y0120712D02*
X0316016Y0116442D01*
X0314948Y0115374D01*
X0312786Y0116442D02*
X0311719Y0115374D01*
X0309583Y0115374D01*
X0308516Y0116442D01*
X0308516Y0118577D01*
X0309583Y0119645D01*
X0311719Y0119645D01*
X0312786Y0118577D01*
X0312786Y0116442D01*
X0306341Y0115374D02*
X0306341Y0119645D01*
X0305273Y0119645D01*
X0304206Y0118577D01*
X0303138Y0119645D01*
X0302070Y0118577D01*
X0302070Y0115374D01*
X0304206Y0115374D02*
X0304206Y0118577D01*
X0299895Y0116442D02*
X0298828Y0117509D01*
X0295625Y0117509D01*
X0295625Y0118577D02*
X0295625Y0115374D01*
X0298828Y0115374D01*
X0299895Y0116442D01*
X0298828Y0119645D02*
X0296692Y0119645D01*
X0295625Y0118577D01*
X0293450Y0119645D02*
X0291315Y0119645D01*
X0292382Y0120712D02*
X0292382Y0116442D01*
X0291315Y0115374D01*
X0289153Y0115374D02*
X0287018Y0115374D01*
X0288085Y0115374D02*
X0288085Y0119645D01*
X0289153Y0119645D01*
X0288085Y0121780D02*
X0288085Y0122847D01*
X0284856Y0118577D02*
X0283788Y0119645D01*
X0281653Y0119645D01*
X0280585Y0118577D01*
X0280585Y0116442D01*
X0281653Y0115374D01*
X0283788Y0115374D01*
X0284856Y0116442D01*
X0284856Y0118577D01*
X0278410Y0119645D02*
X0275207Y0119645D01*
X0274140Y0118577D01*
X0274140Y0115374D01*
X0278410Y0115374D02*
X0278410Y0119645D01*
X0265519Y0121780D02*
X0265519Y0115374D01*
X0261249Y0115374D02*
X0261249Y0121780D01*
X0259074Y0118577D02*
X0259074Y0116442D01*
X0258006Y0115374D01*
X0255871Y0115374D01*
X0254803Y0116442D01*
X0254803Y0118577D01*
X0255871Y0119645D01*
X0258006Y0119645D01*
X0259074Y0118577D01*
X0261249Y0115374D02*
X0265519Y0121780D01*
X0252628Y0118577D02*
X0251561Y0119645D01*
X0248358Y0119645D01*
X0248358Y0121780D02*
X0248358Y0115374D01*
X0251561Y0115374D01*
X0252628Y0116442D01*
X0252628Y0118577D01*
X0246183Y0118577D02*
X0245115Y0119645D01*
X0242980Y0119645D01*
X0241912Y0118577D01*
X0241912Y0117509D01*
X0246183Y0117509D01*
X0246183Y0116442D02*
X0246183Y0118577D01*
X0246183Y0116442D02*
X0245115Y0115374D01*
X0242980Y0115374D01*
X0233292Y0115374D02*
X0233292Y0121780D01*
X0230089Y0121780D01*
X0229021Y0120712D01*
X0229021Y0118577D01*
X0230089Y0117509D01*
X0233292Y0117509D01*
X0231157Y0117509D02*
X0229021Y0115374D01*
X0226846Y0116442D02*
X0226846Y0118577D01*
X0225779Y0119645D01*
X0223643Y0119645D01*
X0222576Y0118577D01*
X0222576Y0117509D01*
X0226846Y0117509D01*
X0226846Y0116442D02*
X0225779Y0115374D01*
X0223643Y0115374D01*
X0220401Y0119645D02*
X0218266Y0115374D01*
X0216130Y0119645D01*
X0207510Y0119645D02*
X0205375Y0121780D01*
X0205375Y0115374D01*
X0207510Y0115374D02*
X0203239Y0115374D01*
X0201064Y0115374D02*
X0196794Y0119645D01*
X0196794Y0120712D01*
X0197861Y0121780D01*
X0199997Y0121780D01*
X0201064Y0120712D01*
X0201064Y0115374D02*
X0196794Y0115374D01*
X0323529Y0116442D02*
X0323529Y0119645D01*
X0325704Y0118577D02*
X0329974Y0118577D01*
X0381538Y0119645D02*
X0381538Y0115374D01*
X0391213Y0119645D02*
X0392281Y0118577D01*
X0394456Y0119645D02*
X0397659Y0119645D01*
X0398726Y0118577D01*
X0406253Y0119645D02*
X0407320Y0119645D01*
X0409495Y0119645D02*
X0409495Y0116442D01*
X0410563Y0115374D01*
X0411630Y0116442D01*
X0412698Y0115374D01*
X0413766Y0116442D01*
X0413766Y0119645D01*
X0415941Y0120712D02*
X0417008Y0121780D01*
X0419144Y0121780D01*
X0420211Y0120712D01*
X0420211Y0119645D01*
X0419144Y0118577D01*
X0417008Y0118577D01*
X0415941Y0117509D01*
X0415941Y0116442D01*
X0417008Y0115374D01*
X0419144Y0115374D01*
X0420211Y0116442D01*
X0428832Y0115374D02*
X0432035Y0115374D01*
X0433102Y0116442D01*
X0433102Y0119645D01*
X0435277Y0118577D02*
X0435277Y0115374D01*
X0438480Y0115374D01*
X0439548Y0116442D01*
X0438480Y0117509D01*
X0435277Y0117509D01*
X0435277Y0118577D02*
X0436345Y0119645D01*
X0438480Y0119645D01*
X0441723Y0121780D02*
X0441723Y0115374D01*
X0443858Y0117509D01*
X0445993Y0115374D01*
X0445993Y0121780D01*
X0454614Y0118577D02*
X0458884Y0118577D01*
X0455681Y0121780D01*
X0455681Y0115374D01*
X0430967Y0113239D02*
X0429899Y0113239D01*
X0428832Y0114307D01*
X0428832Y0119645D01*
X0247329Y0218829D02*
X0243058Y0218829D01*
X0240883Y0218829D02*
X0236613Y0218829D01*
X0234438Y0218829D02*
X0230167Y0218829D01*
X0227992Y0218829D02*
X0223722Y0218829D01*
X0221547Y0218829D02*
X0217276Y0218829D01*
X0208656Y0215626D02*
X0204385Y0218829D01*
X0208656Y0222032D01*
M02*
