%
M48
M72
T01C0.03150
T02C0.03200
T03C0.03543
T04C0.03937
T05C0.04000
T06C0.05200
T07C0.10827
%
T01
X54161Y190291
X54161Y200291
X54161Y210291
X54161Y220291
X54161Y230291
X54161Y240291
X54161Y250291
X54161Y260291
X144161Y260291
X144161Y250291
X144161Y240291
X144161Y230291
X144161Y220291
X144161Y210291
X144161Y200291
X144161Y190291
T02
X116479Y201751
X116479Y211751
X116479Y221751
X116479Y231751
X116479Y241751
X116479Y251751
X116479Y261751
X116479Y271751
X116479Y281751
X86479Y281751
X86479Y271751
X86479Y261751
X86479Y251751
X86479Y241751
X86479Y231751
X86479Y221751
X86479Y211751
X86479Y201751
X39252Y250850
X39252Y260850
T03
X184394Y283490
X231638Y283490
X239512Y259868
X231638Y236246
X277660Y236148
X324904Y236148
X332778Y259770
X324904Y283392
X277660Y283392
X372047Y283400
X419291Y283400
X427165Y259778
X419291Y236156
X372047Y236156
X372153Y202932
X333065Y179170
X325191Y155548
X277947Y155548
X239138Y179455
X231264Y155833
X184020Y155833
X184020Y203077
X184394Y236246
X231264Y203077
X277947Y202792
X325191Y202792
X372153Y155688
X419397Y155688
X427271Y179310
X419397Y202932
T04
X177344Y89217
X177344Y69532
X61596Y49060
X61596Y109690
T05
X88931Y136091
X98931Y136091
X108931Y136091
X118931Y136091
T06
X205690Y80858
X225390Y80858
X265326Y80907
X285026Y80907
X312571Y81326
X332271Y81326
X388686Y80273
X408386Y80273
X436037Y80864
X455737Y80864
X462170Y180159
X462170Y199859
X461563Y226553
X461563Y246253
T07
X40528Y46673
X40528Y300610
X495252Y300610
X495252Y46673
M30
