G75*
%MOIN*%
%OFA0B0*%
%FSLAX25Y25*%
%IPPOS*%
%LPD*%
%AMOC8*
5,1,8,0,0,1.08239X$1,22.5*
%
%ADD10OC8,0.06000*%
%ADD11OC8,0.07874*%
%ADD12OC8,0.08600*%
%ADD13C,0.05200*%
%ADD14C,0.07800*%
%ADD15OC8,0.05200*%
%ADD16C,0.06000*%
%ADD17C,0.08600*%
%ADD18C,0.02400*%
%ADD19C,0.01000*%
%ADD20C,0.08000*%
%ADD21C,0.04000*%
D10*
X0054161Y0190291D03*
X0054161Y0200291D03*
X0054161Y0210291D03*
X0054161Y0220291D03*
X0054161Y0230291D03*
X0054161Y0240291D03*
X0054161Y0250291D03*
X0054161Y0260291D03*
X0144161Y0260291D03*
X0144161Y0250291D03*
X0144161Y0240291D03*
X0144161Y0230291D03*
X0144161Y0220291D03*
X0144161Y0210291D03*
X0144161Y0200291D03*
X0144161Y0190291D03*
D11*
X0061596Y0109690D03*
X0061596Y0049060D03*
X0177344Y0069532D03*
X0177344Y0089217D03*
D12*
X0184020Y0155833D03*
X0231264Y0155833D03*
X0239138Y0179455D03*
X0231264Y0203077D03*
X0277947Y0202792D03*
X0325191Y0202792D03*
X0333065Y0179170D03*
X0325191Y0155548D03*
X0277947Y0155548D03*
X0372153Y0155688D03*
X0419397Y0155688D03*
X0427271Y0179310D03*
X0419397Y0202932D03*
X0372153Y0202932D03*
X0372047Y0236156D03*
X0332778Y0259770D03*
X0324904Y0283392D03*
X0277660Y0283392D03*
X0239512Y0259868D03*
X0231638Y0283490D03*
X0184394Y0283490D03*
X0184394Y0236246D03*
X0184020Y0203077D03*
X0231638Y0236246D03*
X0277660Y0236148D03*
X0324904Y0236148D03*
X0372047Y0283400D03*
X0419291Y0283400D03*
X0427165Y0259778D03*
X0419291Y0236156D03*
D13*
X0119079Y0231751D02*
X0113879Y0231751D01*
X0113879Y0241751D02*
X0119079Y0241751D01*
X0119079Y0251751D02*
X0113879Y0251751D01*
X0113879Y0261751D02*
X0119079Y0261751D01*
X0119079Y0271751D02*
X0113879Y0271751D01*
X0113879Y0281751D02*
X0119079Y0281751D01*
X0089079Y0281751D02*
X0083879Y0281751D01*
X0083879Y0271751D02*
X0089079Y0271751D01*
X0089079Y0261751D02*
X0083879Y0261751D01*
X0083879Y0251751D02*
X0089079Y0251751D01*
X0089079Y0241751D02*
X0083879Y0241751D01*
X0083879Y0231751D02*
X0089079Y0231751D01*
X0089079Y0221751D02*
X0083879Y0221751D01*
X0083879Y0211751D02*
X0089079Y0211751D01*
X0089079Y0201751D02*
X0083879Y0201751D01*
X0113879Y0201751D02*
X0119079Y0201751D01*
X0119079Y0211751D02*
X0113879Y0211751D01*
X0113879Y0221751D02*
X0119079Y0221751D01*
D14*
X0205690Y0084758D02*
X0205690Y0076958D01*
X0225390Y0076958D02*
X0225390Y0084758D01*
X0265326Y0084807D02*
X0265326Y0077007D01*
X0285026Y0077007D02*
X0285026Y0084807D01*
X0312571Y0085226D02*
X0312571Y0077426D01*
X0332271Y0077426D02*
X0332271Y0085226D01*
X0388686Y0084173D02*
X0388686Y0076373D01*
X0408386Y0076373D02*
X0408386Y0084173D01*
X0436037Y0084764D02*
X0436037Y0076964D01*
X0455737Y0076964D02*
X0455737Y0084764D01*
X0458270Y0180159D02*
X0466070Y0180159D01*
X0466070Y0199859D02*
X0458270Y0199859D01*
X0457663Y0226553D02*
X0465463Y0226553D01*
X0465463Y0246253D02*
X0457663Y0246253D01*
D15*
X0039252Y0250850D03*
X0039252Y0260850D03*
D16*
X0088931Y0139091D02*
X0088931Y0133091D01*
X0098931Y0133091D02*
X0098931Y0139091D01*
X0108931Y0139091D02*
X0108931Y0133091D01*
X0118931Y0133091D02*
X0118931Y0139091D01*
D17*
X0177344Y0089217D02*
X0188932Y0105268D01*
X0213007Y0105268D01*
X0225390Y0089810D01*
X0225390Y0080858D01*
X0205690Y0080858D02*
X0194365Y0069532D01*
X0177344Y0069532D01*
D18*
X0051384Y0057974D02*
X0051384Y0039944D01*
X0157751Y0039944D01*
X0157751Y0171428D01*
X0113205Y0171428D01*
X0112102Y0171885D01*
X0111258Y0172729D01*
X0086637Y0197351D01*
X0083004Y0197351D01*
X0081387Y0198021D01*
X0080149Y0199258D01*
X0079479Y0200876D01*
X0079479Y0202626D01*
X0080149Y0204243D01*
X0081387Y0205481D01*
X0083004Y0206151D01*
X0089955Y0206151D01*
X0091572Y0205481D01*
X0092809Y0204243D01*
X0093479Y0202626D01*
X0093479Y0200876D01*
X0092928Y0199545D01*
X0115044Y0177428D01*
X0157751Y0177428D01*
X0157751Y0305972D01*
X0057657Y0305972D01*
X0057395Y0305654D01*
X0057395Y0306127D01*
X0051951Y0306127D01*
X0051951Y0289546D01*
X0033252Y0289546D01*
X0033252Y0058794D01*
X0032156Y0058794D01*
X0032156Y0057974D01*
X0051384Y0057974D01*
X0051384Y0057432D02*
X0157751Y0057432D01*
X0157751Y0055034D02*
X0064301Y0055034D01*
X0064138Y0055197D02*
X0061596Y0055197D01*
X0059054Y0055197D01*
X0055459Y0051602D01*
X0055459Y0049060D01*
X0061596Y0049060D01*
X0061596Y0055197D01*
X0061596Y0049060D01*
X0061596Y0049060D01*
X0061596Y0049060D01*
X0061596Y0067178D01*
X0118661Y0124243D01*
X0118661Y0135821D01*
X0118931Y0136091D01*
X0118931Y0136091D01*
X0118931Y0127891D01*
X0118522Y0127891D01*
X0117714Y0128019D01*
X0116935Y0128272D01*
X0116206Y0128644D01*
X0115544Y0129125D01*
X0114965Y0129704D01*
X0114484Y0130366D01*
X0114112Y0131095D01*
X0113859Y0131874D01*
X0113731Y0132682D01*
X0113731Y0136091D01*
X0118931Y0136091D01*
X0118931Y0136091D01*
X0118931Y0127891D01*
X0119341Y0127891D01*
X0120149Y0128019D01*
X0120927Y0128272D01*
X0121657Y0128644D01*
X0122319Y0129125D01*
X0122898Y0129704D01*
X0123379Y0130366D01*
X0123750Y0131095D01*
X0124003Y0131874D01*
X0124131Y0132682D01*
X0124131Y0136091D01*
X0118931Y0136091D01*
X0113731Y0136091D01*
X0113731Y0139501D01*
X0113859Y0140309D01*
X0114112Y0141088D01*
X0114484Y0141817D01*
X0114965Y0142479D01*
X0115544Y0143058D01*
X0116206Y0143539D01*
X0116935Y0143910D01*
X0117714Y0144163D01*
X0118522Y0144291D01*
X0118931Y0144291D01*
X0118931Y0136092D01*
X0118931Y0136092D01*
X0118931Y0144291D01*
X0119341Y0144291D01*
X0120149Y0144163D01*
X0120927Y0143910D01*
X0121657Y0143539D01*
X0122319Y0143058D01*
X0122898Y0142479D01*
X0123379Y0141817D01*
X0123750Y0141088D01*
X0124003Y0140309D01*
X0124131Y0139501D01*
X0124131Y0136091D01*
X0118931Y0136091D01*
X0118931Y0155742D01*
X0109191Y0165482D01*
X0057125Y0165482D01*
X0038972Y0183635D01*
X0038972Y0250569D01*
X0039252Y0250850D01*
X0039252Y0255650D01*
X0037264Y0255650D01*
X0034452Y0252838D01*
X0034452Y0250850D01*
X0039252Y0250850D01*
X0039252Y0250850D01*
X0039252Y0255650D01*
X0041240Y0255650D01*
X0044052Y0252838D01*
X0044052Y0250850D01*
X0039252Y0250850D01*
X0039252Y0250849D01*
X0039252Y0250849D01*
X0039252Y0246050D01*
X0037264Y0246050D01*
X0034452Y0248861D01*
X0034452Y0250849D01*
X0039252Y0250849D01*
X0039252Y0246050D01*
X0041240Y0246050D01*
X0044052Y0248861D01*
X0044052Y0250849D01*
X0039252Y0250849D01*
X0039252Y0250850D01*
X0032925Y0257771D01*
X0032925Y0267472D01*
X0063841Y0299115D01*
X0103452Y0299115D01*
X0116479Y0286088D01*
X0116479Y0281751D01*
X0116479Y0281751D01*
X0109079Y0281751D01*
X0109079Y0282129D01*
X0109198Y0282875D01*
X0109431Y0283593D01*
X0109774Y0284267D01*
X0110218Y0284878D01*
X0110752Y0285412D01*
X0111364Y0285856D01*
X0112037Y0286199D01*
X0112755Y0286433D01*
X0113502Y0286551D01*
X0116479Y0286551D01*
X0116479Y0281751D01*
X0116479Y0281751D01*
X0109079Y0281751D01*
X0109079Y0281373D01*
X0109198Y0280627D01*
X0109431Y0279908D01*
X0109774Y0279235D01*
X0110218Y0278624D01*
X0110752Y0278090D01*
X0111364Y0277646D01*
X0112037Y0277303D01*
X0112755Y0277069D01*
X0113502Y0276951D01*
X0116479Y0276951D01*
X0116479Y0281751D01*
X0116479Y0281751D01*
X0116479Y0286551D01*
X0119457Y0286551D01*
X0120203Y0286433D01*
X0120922Y0286199D01*
X0121595Y0285856D01*
X0122206Y0285412D01*
X0122741Y0284878D01*
X0123185Y0284267D01*
X0123528Y0283593D01*
X0123761Y0282875D01*
X0123879Y0282129D01*
X0123879Y0281751D01*
X0116479Y0281751D01*
X0116479Y0281751D01*
X0116479Y0276951D01*
X0119457Y0276951D01*
X0120203Y0277069D01*
X0120922Y0277303D01*
X0121595Y0277646D01*
X0122206Y0278090D01*
X0122741Y0278624D01*
X0123185Y0279235D01*
X0123528Y0279908D01*
X0123761Y0280627D01*
X0123879Y0281373D01*
X0123879Y0281751D01*
X0116479Y0281751D01*
X0116479Y0282892D02*
X0116479Y0282892D01*
X0116479Y0280494D02*
X0116479Y0280494D01*
X0116479Y0278095D02*
X0116479Y0278095D01*
X0113004Y0276151D02*
X0111387Y0275481D01*
X0110149Y0274243D01*
X0109479Y0272626D01*
X0109479Y0270876D01*
X0110149Y0269258D01*
X0111387Y0268021D01*
X0113004Y0267351D01*
X0119955Y0267351D01*
X0121572Y0268021D01*
X0122809Y0269258D01*
X0123479Y0270876D01*
X0123479Y0272626D01*
X0122809Y0274243D01*
X0121572Y0275481D01*
X0119955Y0276151D01*
X0113004Y0276151D01*
X0111908Y0275697D02*
X0091050Y0275697D01*
X0091572Y0275481D02*
X0089955Y0276151D01*
X0083004Y0276151D01*
X0081387Y0275481D01*
X0080149Y0274243D01*
X0079479Y0272626D01*
X0079479Y0270876D01*
X0080149Y0269258D01*
X0081387Y0268021D01*
X0083004Y0267351D01*
X0089955Y0267351D01*
X0091572Y0268021D01*
X0092809Y0269258D01*
X0093479Y0270876D01*
X0093479Y0272626D01*
X0092809Y0274243D01*
X0091572Y0275481D01*
X0089955Y0277351D02*
X0091572Y0278021D01*
X0092809Y0279258D01*
X0093479Y0280876D01*
X0093479Y0282626D01*
X0092809Y0284243D01*
X0091572Y0285481D01*
X0089955Y0286151D01*
X0083004Y0286151D01*
X0081387Y0285481D01*
X0080657Y0284751D01*
X0075024Y0284751D01*
X0073921Y0284294D01*
X0054718Y0265091D01*
X0052172Y0265091D01*
X0050931Y0263850D01*
X0042475Y0263850D01*
X0041075Y0265250D01*
X0037430Y0265250D01*
X0034852Y0262672D01*
X0034852Y0259027D01*
X0037430Y0256450D01*
X0041075Y0256450D01*
X0042475Y0257850D01*
X0049814Y0257850D01*
X0052172Y0255491D01*
X0056149Y0255491D01*
X0058961Y0258303D01*
X0058961Y0260848D01*
X0076863Y0278751D01*
X0080657Y0278751D01*
X0081387Y0278021D01*
X0083004Y0277351D01*
X0089955Y0277351D01*
X0091646Y0278095D02*
X0110747Y0278095D01*
X0109241Y0280494D02*
X0093321Y0280494D01*
X0093369Y0282892D02*
X0109203Y0282892D01*
X0110631Y0285291D02*
X0091762Y0285291D01*
X0086479Y0281751D02*
X0075620Y0281751D01*
X0054161Y0260291D01*
X0053602Y0260850D01*
X0039252Y0260850D01*
X0035884Y0263704D02*
X0033252Y0263704D01*
X0033252Y0261306D02*
X0034852Y0261306D01*
X0034972Y0258907D02*
X0033252Y0258907D01*
X0033252Y0256509D02*
X0037370Y0256509D01*
X0035725Y0254110D02*
X0033252Y0254110D01*
X0033252Y0251712D02*
X0034452Y0251712D01*
X0034452Y0249313D02*
X0033252Y0249313D01*
X0033252Y0246915D02*
X0036399Y0246915D01*
X0039252Y0246915D02*
X0039252Y0246915D01*
X0039252Y0249313D02*
X0039252Y0249313D01*
X0039252Y0250850D02*
X0053484Y0250968D01*
X0054161Y0250291D01*
X0054161Y0250291D01*
X0059361Y0250291D01*
X0059361Y0248137D01*
X0056315Y0245091D01*
X0054161Y0245091D01*
X0054161Y0250291D01*
X0059361Y0250291D01*
X0059361Y0252445D01*
X0056315Y0255491D01*
X0054161Y0255491D01*
X0054161Y0250291D01*
X0054161Y0250291D01*
X0054161Y0250291D01*
X0054161Y0245091D01*
X0052007Y0245091D01*
X0048961Y0248137D01*
X0048961Y0250291D01*
X0054161Y0250291D01*
X0054161Y0255491D01*
X0052007Y0255491D01*
X0048961Y0252445D01*
X0048961Y0250291D01*
X0054161Y0250291D01*
X0054161Y0250291D01*
X0054161Y0249313D02*
X0054161Y0249313D01*
X0054161Y0246915D02*
X0054161Y0246915D01*
X0056149Y0245091D02*
X0052172Y0245091D01*
X0049361Y0242279D01*
X0049361Y0238303D01*
X0052172Y0235491D01*
X0056149Y0235491D01*
X0058649Y0237991D01*
X0074962Y0237991D01*
X0079479Y0242508D01*
X0079479Y0240876D01*
X0080149Y0239258D01*
X0080460Y0238947D01*
X0079912Y0238947D01*
X0078565Y0237600D01*
X0073556Y0232591D01*
X0058649Y0232591D01*
X0056149Y0235091D01*
X0052172Y0235091D01*
X0049361Y0232279D01*
X0049361Y0228303D01*
X0052172Y0225491D01*
X0056149Y0225491D01*
X0058649Y0227991D01*
X0075461Y0227991D01*
X0079479Y0232009D01*
X0079479Y0230876D01*
X0080149Y0229258D01*
X0081387Y0228021D01*
X0083004Y0227351D01*
X0089955Y0227351D01*
X0091572Y0228021D01*
X0092809Y0229258D01*
X0093479Y0230876D01*
X0093479Y0232626D01*
X0092809Y0234243D01*
X0092705Y0234347D01*
X0094039Y0234347D01*
X0097842Y0230544D01*
X0097842Y0227135D01*
X0110442Y0214536D01*
X0110149Y0214243D01*
X0109479Y0212626D01*
X0109479Y0210876D01*
X0110149Y0209258D01*
X0111387Y0208021D01*
X0113004Y0207351D01*
X0119955Y0207351D01*
X0121572Y0208021D01*
X0122809Y0209258D01*
X0123479Y0210876D01*
X0123479Y0212626D01*
X0122809Y0214243D01*
X0121572Y0215481D01*
X0119955Y0216151D01*
X0115332Y0216151D01*
X0114132Y0217351D01*
X0119955Y0217351D01*
X0121572Y0218021D01*
X0122809Y0219258D01*
X0123479Y0220876D01*
X0123479Y0222626D01*
X0122809Y0224243D01*
X0121572Y0225481D01*
X0119955Y0226151D01*
X0115332Y0226151D01*
X0114132Y0227351D01*
X0119955Y0227351D01*
X0121572Y0228021D01*
X0122809Y0229258D01*
X0123479Y0230876D01*
X0123479Y0232626D01*
X0122809Y0234243D01*
X0121572Y0235481D01*
X0119955Y0236151D01*
X0113004Y0236151D01*
X0111387Y0235481D01*
X0110149Y0234243D01*
X0109479Y0232626D01*
X0109479Y0232004D01*
X0103762Y0237720D01*
X0103762Y0242684D01*
X0102415Y0244032D01*
X0097199Y0249248D01*
X0092799Y0249248D01*
X0092809Y0249258D01*
X0093479Y0250876D01*
X0093479Y0252626D01*
X0092809Y0254243D01*
X0091572Y0255481D01*
X0089955Y0256151D01*
X0083004Y0256151D01*
X0081387Y0255481D01*
X0080149Y0254243D01*
X0079479Y0252626D01*
X0079479Y0250876D01*
X0080149Y0249258D01*
X0080159Y0249248D01*
X0079714Y0249248D01*
X0078367Y0247901D01*
X0073057Y0242591D01*
X0058649Y0242591D01*
X0056149Y0245091D01*
X0056724Y0244516D02*
X0074982Y0244516D01*
X0077381Y0246915D02*
X0058138Y0246915D01*
X0059361Y0249313D02*
X0080126Y0249313D01*
X0079479Y0251712D02*
X0059361Y0251712D01*
X0057695Y0254110D02*
X0080094Y0254110D01*
X0081387Y0258021D02*
X0083004Y0257351D01*
X0089955Y0257351D01*
X0091572Y0258021D01*
X0092809Y0259258D01*
X0093479Y0260876D01*
X0093479Y0262626D01*
X0092809Y0264243D01*
X0091572Y0265481D01*
X0089955Y0266151D01*
X0083004Y0266151D01*
X0081387Y0265481D01*
X0080149Y0264243D01*
X0079479Y0262626D01*
X0079479Y0260876D01*
X0080149Y0259258D01*
X0081387Y0258021D01*
X0080500Y0258907D02*
X0058961Y0258907D01*
X0059418Y0261306D02*
X0079479Y0261306D01*
X0079926Y0263704D02*
X0061817Y0263704D01*
X0064215Y0266103D02*
X0082888Y0266103D01*
X0080906Y0268501D02*
X0066614Y0268501D01*
X0069012Y0270900D02*
X0079479Y0270900D01*
X0079758Y0273298D02*
X0071411Y0273298D01*
X0073809Y0275697D02*
X0081908Y0275697D01*
X0081312Y0278095D02*
X0076208Y0278095D01*
X0072519Y0282892D02*
X0033252Y0282892D01*
X0033252Y0280494D02*
X0070121Y0280494D01*
X0067722Y0278095D02*
X0033252Y0278095D01*
X0033252Y0275697D02*
X0065324Y0275697D01*
X0062925Y0273298D02*
X0033252Y0273298D01*
X0033252Y0270900D02*
X0060527Y0270900D01*
X0058128Y0268501D02*
X0033252Y0268501D01*
X0033252Y0266103D02*
X0055730Y0266103D01*
X0057167Y0256509D02*
X0141155Y0256509D01*
X0142172Y0255491D02*
X0146149Y0255491D01*
X0148961Y0258303D01*
X0148961Y0262279D01*
X0146149Y0265091D01*
X0142172Y0265091D01*
X0139361Y0262279D01*
X0139361Y0258303D01*
X0142172Y0255491D01*
X0142172Y0255091D02*
X0139361Y0252279D01*
X0139361Y0248303D01*
X0142172Y0245491D01*
X0146149Y0245491D01*
X0148961Y0248303D01*
X0148961Y0252279D01*
X0146149Y0255091D01*
X0142172Y0255091D01*
X0141192Y0254110D02*
X0122865Y0254110D01*
X0122809Y0254243D02*
X0121572Y0255481D01*
X0119955Y0256151D01*
X0113004Y0256151D01*
X0111387Y0255481D01*
X0110149Y0254243D01*
X0109479Y0252626D01*
X0109479Y0250876D01*
X0110149Y0249258D01*
X0111387Y0248021D01*
X0113004Y0247351D01*
X0119955Y0247351D01*
X0121572Y0248021D01*
X0122809Y0249258D01*
X0123479Y0250876D01*
X0123479Y0252626D01*
X0122809Y0254243D01*
X0123479Y0251712D02*
X0139361Y0251712D01*
X0139361Y0249313D02*
X0122832Y0249313D01*
X0121572Y0245481D02*
X0119955Y0246151D01*
X0113004Y0246151D01*
X0111387Y0245481D01*
X0110149Y0244243D01*
X0109479Y0242626D01*
X0109479Y0240876D01*
X0110149Y0239258D01*
X0111387Y0238021D01*
X0113004Y0237351D01*
X0119955Y0237351D01*
X0121572Y0238021D01*
X0122809Y0239258D01*
X0123479Y0240876D01*
X0123479Y0242626D01*
X0122809Y0244243D01*
X0121572Y0245481D01*
X0122536Y0244516D02*
X0141598Y0244516D01*
X0142172Y0245091D02*
X0139361Y0242279D01*
X0139361Y0238303D01*
X0142172Y0235491D01*
X0146149Y0235491D01*
X0148961Y0238303D01*
X0148961Y0242279D01*
X0146149Y0245091D01*
X0142172Y0245091D01*
X0140749Y0246915D02*
X0099532Y0246915D01*
X0101931Y0244516D02*
X0110422Y0244516D01*
X0109479Y0242118D02*
X0103762Y0242118D01*
X0103762Y0239719D02*
X0109958Y0239719D01*
X0110828Y0234922D02*
X0106561Y0234922D01*
X0108959Y0232524D02*
X0109479Y0232524D01*
X0104162Y0237321D02*
X0140343Y0237321D01*
X0139361Y0239719D02*
X0123000Y0239719D01*
X0123479Y0242118D02*
X0139361Y0242118D01*
X0142172Y0235091D02*
X0139361Y0232279D01*
X0139361Y0228303D01*
X0142172Y0225491D01*
X0146149Y0225491D01*
X0148961Y0228303D01*
X0148961Y0232279D01*
X0146149Y0235091D01*
X0142172Y0235091D01*
X0142004Y0234922D02*
X0122130Y0234922D01*
X0123479Y0232524D02*
X0139605Y0232524D01*
X0139361Y0230125D02*
X0123168Y0230125D01*
X0120862Y0227727D02*
X0139937Y0227727D01*
X0142172Y0225091D02*
X0139361Y0222279D01*
X0139361Y0218303D01*
X0142172Y0215491D01*
X0146149Y0215491D01*
X0148961Y0218303D01*
X0148961Y0222279D01*
X0146149Y0225091D01*
X0142172Y0225091D01*
X0140011Y0222930D02*
X0123354Y0222930D01*
X0123337Y0220531D02*
X0139361Y0220531D01*
X0139531Y0218133D02*
X0121684Y0218133D01*
X0120961Y0215734D02*
X0141929Y0215734D01*
X0142172Y0215091D02*
X0139361Y0212279D01*
X0139361Y0209734D01*
X0134378Y0204751D01*
X0122302Y0204751D01*
X0121572Y0205481D01*
X0119955Y0206151D01*
X0113004Y0206151D01*
X0111387Y0205481D01*
X0110149Y0204243D01*
X0109479Y0202626D01*
X0109479Y0200876D01*
X0110149Y0199258D01*
X0111387Y0198021D01*
X0113004Y0197351D01*
X0119955Y0197351D01*
X0121572Y0198021D01*
X0122302Y0198751D01*
X0136217Y0198751D01*
X0137320Y0199208D01*
X0139361Y0201248D01*
X0139361Y0198303D01*
X0142172Y0195491D01*
X0146149Y0195491D01*
X0148961Y0198303D01*
X0148961Y0202279D01*
X0146149Y0205091D01*
X0143203Y0205091D01*
X0143603Y0205491D01*
X0146149Y0205491D01*
X0148961Y0208303D01*
X0148961Y0212279D01*
X0146149Y0215091D01*
X0142172Y0215091D01*
X0140417Y0213336D02*
X0123185Y0213336D01*
X0123479Y0210937D02*
X0139361Y0210937D01*
X0138166Y0208539D02*
X0122090Y0208539D01*
X0119981Y0206140D02*
X0135767Y0206140D01*
X0135620Y0201751D02*
X0144161Y0210291D01*
X0147904Y0213336D02*
X0157751Y0213336D01*
X0157751Y0215734D02*
X0146392Y0215734D01*
X0148790Y0218133D02*
X0157751Y0218133D01*
X0157751Y0220531D02*
X0148961Y0220531D01*
X0148310Y0222930D02*
X0157751Y0222930D01*
X0157751Y0225328D02*
X0121725Y0225328D01*
X0109243Y0215734D02*
X0090961Y0215734D01*
X0091572Y0215481D02*
X0089955Y0216151D01*
X0083004Y0216151D01*
X0081387Y0215481D01*
X0080149Y0214243D01*
X0079479Y0212626D01*
X0079479Y0210876D01*
X0080149Y0209258D01*
X0081387Y0208021D01*
X0083004Y0207351D01*
X0089955Y0207351D01*
X0091572Y0208021D01*
X0092809Y0209258D01*
X0093479Y0210876D01*
X0093479Y0212626D01*
X0092809Y0214243D01*
X0091572Y0215481D01*
X0089955Y0217351D02*
X0091572Y0218021D01*
X0092809Y0219258D01*
X0093479Y0220876D01*
X0093479Y0222626D01*
X0092809Y0224243D01*
X0091572Y0225481D01*
X0089955Y0226151D01*
X0083004Y0226151D01*
X0081387Y0225481D01*
X0080149Y0224243D01*
X0079479Y0222626D01*
X0079479Y0220876D01*
X0080149Y0219258D01*
X0081387Y0218021D01*
X0083004Y0217351D01*
X0089955Y0217351D01*
X0091684Y0218133D02*
X0106845Y0218133D01*
X0104446Y0220531D02*
X0093337Y0220531D01*
X0093354Y0222930D02*
X0102048Y0222930D01*
X0099649Y0225328D02*
X0091725Y0225328D01*
X0090862Y0227727D02*
X0097842Y0227727D01*
X0097842Y0230125D02*
X0093168Y0230125D01*
X0093479Y0232524D02*
X0095863Y0232524D01*
X0082097Y0227727D02*
X0058384Y0227727D01*
X0056149Y0225091D02*
X0052172Y0225091D01*
X0049361Y0222279D01*
X0049361Y0218303D01*
X0052172Y0215491D01*
X0056149Y0215491D01*
X0058961Y0218303D01*
X0058961Y0222279D01*
X0056149Y0225091D01*
X0058310Y0222930D02*
X0079605Y0222930D01*
X0079622Y0220531D02*
X0058961Y0220531D01*
X0058790Y0218133D02*
X0081275Y0218133D01*
X0081998Y0215734D02*
X0056392Y0215734D01*
X0056149Y0215091D02*
X0058961Y0212279D01*
X0058961Y0208303D01*
X0056149Y0205491D01*
X0052172Y0205491D01*
X0049361Y0208303D01*
X0049361Y0212279D01*
X0052172Y0215091D01*
X0056149Y0215091D01*
X0057904Y0213336D02*
X0079773Y0213336D01*
X0079479Y0210937D02*
X0058961Y0210937D01*
X0058961Y0208539D02*
X0080869Y0208539D01*
X0082978Y0206140D02*
X0056798Y0206140D01*
X0056149Y0205091D02*
X0052172Y0205091D01*
X0049361Y0202279D01*
X0049361Y0198303D01*
X0052172Y0195491D01*
X0056149Y0195491D01*
X0058961Y0198303D01*
X0058961Y0202279D01*
X0056149Y0205091D01*
X0057498Y0203742D02*
X0079941Y0203742D01*
X0079479Y0201343D02*
X0058961Y0201343D01*
X0058961Y0198945D02*
X0080463Y0198945D01*
X0086479Y0201751D02*
X0113802Y0174428D01*
X0212890Y0174428D01*
X0157751Y0170162D02*
X0033252Y0170162D01*
X0033252Y0167764D02*
X0157751Y0167764D01*
X0157751Y0165365D02*
X0033252Y0165365D01*
X0033252Y0162967D02*
X0157751Y0162967D01*
X0157751Y0160568D02*
X0033252Y0160568D01*
X0033252Y0158170D02*
X0157751Y0158170D01*
X0157751Y0155771D02*
X0033252Y0155771D01*
X0033252Y0153373D02*
X0157751Y0153373D01*
X0157751Y0150974D02*
X0033252Y0150974D01*
X0033252Y0148576D02*
X0157751Y0148576D01*
X0157751Y0146177D02*
X0033252Y0146177D01*
X0033252Y0143779D02*
X0087705Y0143779D01*
X0087976Y0143891D02*
X0086212Y0143161D01*
X0084862Y0141810D01*
X0084131Y0140046D01*
X0084131Y0136337D01*
X0060128Y0119097D01*
X0059897Y0119001D01*
X0059647Y0118752D01*
X0059361Y0118546D01*
X0059230Y0118334D01*
X0059053Y0118157D01*
X0058918Y0117832D01*
X0058732Y0117532D01*
X0058692Y0117286D01*
X0058596Y0117055D01*
X0058596Y0116702D01*
X0058539Y0116354D01*
X0058596Y0116111D01*
X0058596Y0114803D01*
X0055859Y0112066D01*
X0055859Y0107313D01*
X0059220Y0103953D01*
X0063972Y0103953D01*
X0067333Y0107313D01*
X0067333Y0112066D01*
X0064596Y0114803D01*
X0064596Y0114919D01*
X0085384Y0129850D01*
X0086212Y0129022D01*
X0087976Y0128291D01*
X0089886Y0128291D01*
X0091650Y0129022D01*
X0093000Y0130372D01*
X0093731Y0132137D01*
X0093731Y0140046D01*
X0093000Y0141810D01*
X0091650Y0143161D01*
X0089886Y0143891D01*
X0087976Y0143891D01*
X0090158Y0143779D02*
X0097705Y0143779D01*
X0097976Y0143891D02*
X0096212Y0143161D01*
X0094862Y0141810D01*
X0094131Y0140046D01*
X0094131Y0132137D01*
X0094862Y0130372D01*
X0096212Y0129022D01*
X0097976Y0128291D01*
X0099886Y0128291D01*
X0101650Y0129022D01*
X0103000Y0130372D01*
X0103731Y0132137D01*
X0103731Y0140046D01*
X0103000Y0141810D01*
X0101650Y0143161D01*
X0099886Y0143891D01*
X0097976Y0143891D01*
X0100158Y0143779D02*
X0107705Y0143779D01*
X0107976Y0143891D02*
X0106212Y0143161D01*
X0104862Y0141810D01*
X0104131Y0140046D01*
X0104131Y0132137D01*
X0104862Y0130372D01*
X0106212Y0129022D01*
X0107976Y0128291D01*
X0109886Y0128291D01*
X0111650Y0129022D01*
X0113000Y0130372D01*
X0113731Y0132137D01*
X0113731Y0140046D01*
X0113000Y0141810D01*
X0111650Y0143161D01*
X0109886Y0143891D01*
X0107976Y0143891D01*
X0110158Y0143779D02*
X0116677Y0143779D01*
X0118931Y0143779D02*
X0118931Y0143779D01*
X0121186Y0143779D02*
X0157751Y0143779D01*
X0157751Y0141380D02*
X0123601Y0141380D01*
X0124131Y0138982D02*
X0157751Y0138982D01*
X0157751Y0136583D02*
X0124131Y0136583D01*
X0124131Y0134185D02*
X0157751Y0134185D01*
X0157751Y0131786D02*
X0123975Y0131786D01*
X0122581Y0129388D02*
X0157751Y0129388D01*
X0157751Y0126989D02*
X0081401Y0126989D01*
X0078062Y0124591D02*
X0157751Y0124591D01*
X0157751Y0122192D02*
X0074722Y0122192D01*
X0071383Y0119794D02*
X0157751Y0119794D01*
X0157751Y0117395D02*
X0068044Y0117395D01*
X0064704Y0114997D02*
X0157751Y0114997D01*
X0157751Y0112598D02*
X0066801Y0112598D01*
X0067333Y0110200D02*
X0157751Y0110200D01*
X0157751Y0107801D02*
X0067333Y0107801D01*
X0065422Y0105403D02*
X0157751Y0105403D01*
X0157751Y0103004D02*
X0033252Y0103004D01*
X0033252Y0100606D02*
X0157751Y0100606D01*
X0157751Y0098207D02*
X0033252Y0098207D01*
X0033252Y0095809D02*
X0157751Y0095809D01*
X0157751Y0093410D02*
X0033252Y0093410D01*
X0033252Y0091012D02*
X0157751Y0091012D01*
X0157751Y0088613D02*
X0033252Y0088613D01*
X0033252Y0086215D02*
X0157751Y0086215D01*
X0157751Y0083816D02*
X0033252Y0083816D01*
X0033252Y0081417D02*
X0157751Y0081417D01*
X0157751Y0079019D02*
X0033252Y0079019D01*
X0033252Y0076620D02*
X0157751Y0076620D01*
X0157751Y0074222D02*
X0033252Y0074222D01*
X0033252Y0071823D02*
X0157751Y0071823D01*
X0157751Y0069425D02*
X0033252Y0069425D01*
X0033252Y0067026D02*
X0157751Y0067026D01*
X0157751Y0064628D02*
X0033252Y0064628D01*
X0033252Y0062229D02*
X0157751Y0062229D01*
X0157751Y0059831D02*
X0033252Y0059831D01*
X0051384Y0055034D02*
X0058891Y0055034D01*
X0061596Y0055034D02*
X0061596Y0055034D01*
X0061596Y0052635D02*
X0061596Y0052635D01*
X0061596Y0050237D02*
X0061596Y0050237D01*
X0061596Y0049060D02*
X0067733Y0049060D01*
X0067733Y0051602D01*
X0064138Y0055197D01*
X0066700Y0052635D02*
X0157751Y0052635D01*
X0157751Y0050237D02*
X0067733Y0050237D01*
X0067733Y0049060D02*
X0061596Y0049060D01*
X0061596Y0049060D01*
X0055459Y0049060D01*
X0055459Y0046518D01*
X0059054Y0042923D01*
X0061596Y0042923D01*
X0061596Y0049060D01*
X0061596Y0042923D01*
X0064138Y0042923D01*
X0067733Y0046518D01*
X0067733Y0049060D01*
X0067733Y0047838D02*
X0157751Y0047838D01*
X0157751Y0045440D02*
X0066655Y0045440D01*
X0064256Y0043041D02*
X0157751Y0043041D01*
X0157751Y0040643D02*
X0051384Y0040643D01*
X0051384Y0043041D02*
X0058936Y0043041D01*
X0061596Y0043041D02*
X0061596Y0043041D01*
X0061596Y0045440D02*
X0061596Y0045440D01*
X0061596Y0047838D02*
X0061596Y0047838D01*
X0061596Y0049060D02*
X0061596Y0049060D01*
X0056537Y0045440D02*
X0051384Y0045440D01*
X0051384Y0047838D02*
X0055459Y0047838D01*
X0055459Y0050237D02*
X0051384Y0050237D01*
X0051384Y0052635D02*
X0056492Y0052635D01*
X0057770Y0105403D02*
X0033252Y0105403D01*
X0033252Y0107801D02*
X0055859Y0107801D01*
X0055859Y0110200D02*
X0033252Y0110200D01*
X0033252Y0112598D02*
X0056391Y0112598D01*
X0058596Y0114997D02*
X0033252Y0114997D01*
X0033252Y0117395D02*
X0058710Y0117395D01*
X0061596Y0116458D02*
X0088931Y0136091D01*
X0084131Y0136583D02*
X0033252Y0136583D01*
X0033252Y0134185D02*
X0081134Y0134185D01*
X0077795Y0131786D02*
X0033252Y0131786D01*
X0033252Y0129388D02*
X0074455Y0129388D01*
X0071116Y0126989D02*
X0033252Y0126989D01*
X0033252Y0124591D02*
X0067777Y0124591D01*
X0064437Y0122192D02*
X0033252Y0122192D01*
X0033252Y0119794D02*
X0061098Y0119794D01*
X0061596Y0116458D02*
X0061596Y0109690D01*
X0084740Y0129388D02*
X0085847Y0129388D01*
X0092016Y0129388D02*
X0095847Y0129388D01*
X0094276Y0131786D02*
X0093586Y0131786D01*
X0093731Y0134185D02*
X0094131Y0134185D01*
X0094131Y0136583D02*
X0093731Y0136583D01*
X0093731Y0138982D02*
X0094131Y0138982D01*
X0094684Y0141380D02*
X0093179Y0141380D01*
X0084684Y0141380D02*
X0033252Y0141380D01*
X0033252Y0138982D02*
X0084131Y0138982D01*
X0103179Y0141380D02*
X0104684Y0141380D01*
X0104131Y0138982D02*
X0103731Y0138982D01*
X0103731Y0136583D02*
X0104131Y0136583D01*
X0104131Y0134185D02*
X0103731Y0134185D01*
X0103586Y0131786D02*
X0104276Y0131786D01*
X0105847Y0129388D02*
X0102016Y0129388D01*
X0112016Y0129388D02*
X0115281Y0129388D01*
X0113888Y0131786D02*
X0113586Y0131786D01*
X0113731Y0134185D02*
X0113731Y0134185D01*
X0113731Y0136583D02*
X0113731Y0136583D01*
X0113731Y0138982D02*
X0113731Y0138982D01*
X0114261Y0141380D02*
X0113179Y0141380D01*
X0118931Y0141380D02*
X0118931Y0141380D01*
X0118931Y0138982D02*
X0118931Y0138982D01*
X0118931Y0136583D02*
X0118931Y0136583D01*
X0118931Y0136091D02*
X0118931Y0136091D01*
X0118931Y0134185D02*
X0118931Y0134185D01*
X0118931Y0131786D02*
X0118931Y0131786D01*
X0118931Y0129388D02*
X0118931Y0129388D01*
X0111427Y0172561D02*
X0033252Y0172561D01*
X0033252Y0174959D02*
X0109028Y0174959D01*
X0106630Y0177358D02*
X0033252Y0177358D01*
X0033252Y0179756D02*
X0104231Y0179756D01*
X0101833Y0182155D02*
X0033252Y0182155D01*
X0033252Y0184553D02*
X0099434Y0184553D01*
X0097036Y0186952D02*
X0057610Y0186952D01*
X0058961Y0188303D02*
X0056149Y0185491D01*
X0052172Y0185491D01*
X0049361Y0188303D01*
X0049361Y0192279D01*
X0052172Y0195091D01*
X0056149Y0195091D01*
X0058961Y0192279D01*
X0058961Y0188303D01*
X0058961Y0189350D02*
X0094637Y0189350D01*
X0092239Y0191749D02*
X0058961Y0191749D01*
X0057092Y0194148D02*
X0089840Y0194148D01*
X0087441Y0196546D02*
X0057204Y0196546D01*
X0051118Y0196546D02*
X0033252Y0196546D01*
X0033252Y0194148D02*
X0051229Y0194148D01*
X0049361Y0191749D02*
X0033252Y0191749D01*
X0033252Y0189350D02*
X0049361Y0189350D01*
X0050712Y0186952D02*
X0033252Y0186952D01*
X0033252Y0198945D02*
X0049361Y0198945D01*
X0049361Y0201343D02*
X0033252Y0201343D01*
X0033252Y0203742D02*
X0050823Y0203742D01*
X0051523Y0206140D02*
X0033252Y0206140D01*
X0033252Y0208539D02*
X0049361Y0208539D01*
X0049361Y0210937D02*
X0033252Y0210937D01*
X0033252Y0213336D02*
X0050417Y0213336D01*
X0051929Y0215734D02*
X0033252Y0215734D01*
X0033252Y0218133D02*
X0049531Y0218133D01*
X0049361Y0220531D02*
X0033252Y0220531D01*
X0033252Y0222930D02*
X0050011Y0222930D01*
X0049937Y0227727D02*
X0033252Y0227727D01*
X0033252Y0230125D02*
X0049361Y0230125D01*
X0049605Y0232524D02*
X0033252Y0232524D01*
X0033252Y0234922D02*
X0052004Y0234922D01*
X0050343Y0237321D02*
X0033252Y0237321D01*
X0033252Y0239719D02*
X0049361Y0239719D01*
X0049361Y0242118D02*
X0033252Y0242118D01*
X0033252Y0244516D02*
X0051598Y0244516D01*
X0050183Y0246915D02*
X0042106Y0246915D01*
X0044052Y0249313D02*
X0048961Y0249313D01*
X0048961Y0251712D02*
X0044052Y0251712D01*
X0042780Y0254110D02*
X0050626Y0254110D01*
X0051155Y0256509D02*
X0041134Y0256509D01*
X0039252Y0254110D02*
X0039252Y0254110D01*
X0039252Y0251712D02*
X0039252Y0251712D01*
X0054161Y0251712D02*
X0054161Y0251712D01*
X0054161Y0254110D02*
X0054161Y0254110D01*
X0076691Y0239719D02*
X0079958Y0239719D01*
X0079479Y0242118D02*
X0079089Y0242118D01*
X0078286Y0237321D02*
X0057979Y0237321D01*
X0056318Y0234922D02*
X0075887Y0234922D01*
X0077595Y0230125D02*
X0079790Y0230125D01*
X0081234Y0225328D02*
X0033252Y0225328D01*
X0089981Y0206140D02*
X0112978Y0206140D01*
X0110869Y0208539D02*
X0092090Y0208539D01*
X0093479Y0210937D02*
X0109479Y0210937D01*
X0109773Y0213336D02*
X0093185Y0213336D01*
X0093017Y0203742D02*
X0109941Y0203742D01*
X0109479Y0201343D02*
X0093479Y0201343D01*
X0093528Y0198945D02*
X0110463Y0198945D01*
X0116479Y0201751D02*
X0135620Y0201751D01*
X0136685Y0198945D02*
X0139361Y0198945D01*
X0141118Y0196546D02*
X0095927Y0196546D01*
X0098325Y0194148D02*
X0141229Y0194148D01*
X0142172Y0195091D02*
X0139361Y0192279D01*
X0139361Y0188303D01*
X0142172Y0185491D01*
X0146149Y0185491D01*
X0148961Y0188303D01*
X0148961Y0192279D01*
X0146149Y0195091D01*
X0142172Y0195091D01*
X0139361Y0191749D02*
X0100724Y0191749D01*
X0103122Y0189350D02*
X0139361Y0189350D01*
X0140712Y0186952D02*
X0105521Y0186952D01*
X0107919Y0184553D02*
X0157751Y0184553D01*
X0157751Y0182155D02*
X0110318Y0182155D01*
X0112716Y0179756D02*
X0157751Y0179756D01*
X0157751Y0186952D02*
X0147610Y0186952D01*
X0148961Y0189350D02*
X0157751Y0189350D01*
X0157751Y0191749D02*
X0148961Y0191749D01*
X0147092Y0194148D02*
X0157751Y0194148D01*
X0157751Y0196546D02*
X0147204Y0196546D01*
X0148961Y0198945D02*
X0157751Y0198945D01*
X0157751Y0201343D02*
X0148961Y0201343D01*
X0147498Y0203742D02*
X0157751Y0203742D01*
X0157751Y0206140D02*
X0146798Y0206140D01*
X0148961Y0208539D02*
X0157751Y0208539D01*
X0157751Y0210937D02*
X0148961Y0210937D01*
X0148384Y0227727D02*
X0157751Y0227727D01*
X0157751Y0230125D02*
X0148961Y0230125D01*
X0148716Y0232524D02*
X0157751Y0232524D01*
X0157751Y0234922D02*
X0146318Y0234922D01*
X0147979Y0237321D02*
X0157751Y0237321D01*
X0157751Y0239719D02*
X0148961Y0239719D01*
X0148961Y0242118D02*
X0157751Y0242118D01*
X0157751Y0244516D02*
X0146724Y0244516D01*
X0147573Y0246915D02*
X0157751Y0246915D01*
X0157751Y0249313D02*
X0148961Y0249313D01*
X0148961Y0251712D02*
X0157751Y0251712D01*
X0157751Y0254110D02*
X0147130Y0254110D01*
X0147167Y0256509D02*
X0157751Y0256509D01*
X0157751Y0258907D02*
X0148961Y0258907D01*
X0148961Y0261306D02*
X0157751Y0261306D01*
X0157751Y0263704D02*
X0147536Y0263704D01*
X0140786Y0263704D02*
X0123033Y0263704D01*
X0122809Y0264243D02*
X0121572Y0265481D01*
X0119955Y0266151D01*
X0113004Y0266151D01*
X0111387Y0265481D01*
X0110149Y0264243D01*
X0109479Y0262626D01*
X0109479Y0260876D01*
X0110149Y0259258D01*
X0111387Y0258021D01*
X0113004Y0257351D01*
X0119955Y0257351D01*
X0121572Y0258021D01*
X0122809Y0259258D01*
X0123479Y0260876D01*
X0123479Y0262626D01*
X0122809Y0264243D01*
X0123479Y0261306D02*
X0139361Y0261306D01*
X0139361Y0258907D02*
X0122458Y0258907D01*
X0120070Y0266103D02*
X0157751Y0266103D01*
X0157751Y0268501D02*
X0122052Y0268501D01*
X0123479Y0270900D02*
X0157751Y0270900D01*
X0157751Y0273298D02*
X0123201Y0273298D01*
X0121050Y0275697D02*
X0157751Y0275697D01*
X0157751Y0278095D02*
X0122212Y0278095D01*
X0123718Y0280494D02*
X0157751Y0280494D01*
X0157751Y0282892D02*
X0123755Y0282892D01*
X0122327Y0285291D02*
X0157751Y0285291D01*
X0157751Y0287689D02*
X0033252Y0287689D01*
X0033252Y0285291D02*
X0081197Y0285291D01*
X0093201Y0273298D02*
X0109758Y0273298D01*
X0109479Y0270900D02*
X0093479Y0270900D01*
X0092052Y0268501D02*
X0110906Y0268501D01*
X0112888Y0266103D02*
X0090070Y0266103D01*
X0093033Y0263704D02*
X0109926Y0263704D01*
X0109479Y0261306D02*
X0093479Y0261306D01*
X0092458Y0258907D02*
X0110500Y0258907D01*
X0110094Y0254110D02*
X0092865Y0254110D01*
X0093479Y0251712D02*
X0109479Y0251712D01*
X0110126Y0249313D02*
X0092832Y0249313D01*
X0116479Y0285291D02*
X0116479Y0285291D01*
X0157751Y0290088D02*
X0051951Y0290088D01*
X0051951Y0292486D02*
X0157751Y0292486D01*
X0157751Y0294885D02*
X0051951Y0294885D01*
X0051951Y0297284D02*
X0157751Y0297284D01*
X0157751Y0299682D02*
X0051951Y0299682D01*
X0051951Y0302081D02*
X0157751Y0302081D01*
X0157751Y0304479D02*
X0051951Y0304479D01*
X0231638Y0283490D02*
X0250694Y0302546D01*
X0290201Y0302546D01*
X0309355Y0283392D01*
X0324904Y0283392D01*
D19*
X0116479Y0221751D02*
X0101462Y0236768D01*
X0101462Y0241732D01*
X0096246Y0246948D01*
X0080667Y0246948D01*
X0074010Y0240291D01*
X0054161Y0240291D01*
X0054161Y0230291D02*
X0074509Y0230291D01*
X0080865Y0236647D01*
X0094992Y0236647D01*
X0100142Y0231497D01*
X0100142Y0228088D01*
X0116479Y0211751D01*
D20*
X0184020Y0155833D02*
X0184347Y0155728D01*
X0190252Y0155728D01*
X0265055Y0080925D01*
X0265326Y0080907D01*
X0331985Y0081417D02*
X0332271Y0081326D01*
X0331985Y0081417D02*
X0331985Y0137027D01*
X0317713Y0137027D01*
X0296551Y0158188D01*
X0296551Y0184271D01*
X0270469Y0184271D01*
X0250292Y0204448D01*
X0250292Y0259566D01*
X0239957Y0259566D01*
X0239512Y0259868D01*
X0231638Y0236246D02*
X0231591Y0235944D01*
X0332778Y0259770D02*
X0332969Y0260058D01*
X0343703Y0260058D01*
X0343703Y0280728D01*
X0364465Y0301889D01*
X0460390Y0301889D01*
X0484111Y0278169D01*
X0484111Y0109035D01*
X0483677Y0108602D01*
X0456000Y0080925D01*
X0455737Y0080864D01*
X0436037Y0080864D02*
X0435823Y0080925D01*
X0435823Y0118818D01*
X0382674Y0118818D01*
X0343796Y0157696D01*
X0343796Y0175905D01*
X0336414Y0175905D01*
X0333461Y0178858D01*
X0333065Y0179170D01*
X0353638Y0191161D02*
X0354130Y0191161D01*
X0371355Y0173936D01*
X0371355Y0159665D01*
X0372153Y0155688D01*
X0372339Y0155236D01*
X0390548Y0137027D01*
X0437792Y0137027D01*
X0437792Y0155728D01*
X0461906Y0179842D01*
X0462170Y0180159D01*
X0419397Y0155688D02*
X0419091Y0155728D01*
X0353638Y0191161D02*
X0353638Y0243818D01*
X0364465Y0254645D01*
X0371847Y0254645D01*
X0371847Y0283188D01*
X0372047Y0283400D01*
X0427165Y0259778D02*
X0427457Y0259566D01*
X0448126Y0259566D01*
X0461414Y0246279D01*
X0461563Y0246253D01*
X0419291Y0236156D02*
X0419091Y0235944D01*
X0231264Y0155833D02*
X0231099Y0156220D01*
X0483677Y0108602D02*
X0484051Y0108976D01*
D21*
X0419091Y0155728D02*
X0419091Y0156856D01*
X0400601Y0175346D01*
X0400601Y0217465D01*
X0419291Y0236156D01*
X0325191Y0202792D02*
X0306501Y0221482D01*
X0306501Y0266146D01*
X0323747Y0283392D01*
X0324904Y0283392D01*
X0231591Y0235944D02*
X0222800Y0235944D01*
X0212701Y0225846D01*
X0212701Y0174617D01*
X0212890Y0174428D01*
X0231099Y0156220D01*
M02*
